<svg xmlns="http://www.w3.org/2000/svg" viewBox="0 0 64 64">
  <!-- 불꽃 외곽 -->
  <ellipse cx="32" cy="18" rx="10" ry="14" fill="#ff6b35" opacity="0.7"/>
  <ellipse cx="32" cy="14" rx="6" ry="10" fill="#ffaa33"/>
  <ellipse cx="32" cy="11" rx="3" ry="6" fill="#ffdd44"/>
  <!-- 하트 -->
  <path d="M32 56 C32 56, 8 40, 8 26 C8 18, 14 14, 20 14 C24 14, 28 17, 32 22 C36 17, 40 14, 44 14 C50 14, 56 18, 56 26 C56 40, 32 56, 32 56Z" fill="#ff4466"/>
  <path d="M32 52 C32 52, 12 38, 12 27 C12 20, 17 17, 22 17 C25 17, 29 19, 32 24 C35 19, 39 17, 42 17 C47 17, 52 20, 52 27 C52 38, 32 52, 32 52Z" fill="#ff6688"/>
  <!-- 하이라이트 -->
  <ellipse cx="22" cy="24" rx="4" ry="5" fill="#ff99aa" opacity="0.6"/>
  <!-- 불꽃 파티클 -->
  <circle cx="26" cy="16" r="2" fill="#ffcc44" opacity="0.8"/>
  <circle cx="38" cy="14" r="1.5" fill="#ffaa33" opacity="0.7"/>
  <circle cx="32" cy="8" r="1.5" fill="#ffdd66" opacity="0.9"/>
</svg>
